<?xml version="1.0" encoding="utf-8"?>
<!-- Generator: Adobe Illustrator 24.0.1, SVG Export Plug-In . SVG Version: 6.00 Build 0)  -->
<svg version="1.1" id="Camada_1" xmlns="http://www.w3.org/2000/svg" xmlns:xlink="http://www.w3.org/1999/xlink" x="0px" y="0px"
	 viewBox="0 0 88.2 12" style="enable-background:new 0 0 88.2 12;" xml:space="preserve">
<style type="text/css">
	.st0{fill:#ECC878;}
</style>
<title>Ativo 1</title>
<g id="Camada_2_1_">
	<g id="Objects">
		<path class="st0" d="M88.1,2.7c0.2-0.4,0.1-0.8-0.3-1c-0.2-0.1-0.4-0.1-0.5-0.1c-1,0.3-2,1.3-2.8,2c-0.4,0.4-0.9,0.8-1.3,1.2
			s-0.6,0.6-0.6,1C69.8,5.4,56.9,5.3,44,5.3c-11.5,0-23.1-0.2-34.7,0.3c0.1-1.5,0.1-3,0-4.5C9.3,0.5,8.7,0,8,0.1
			c-0.3,0-0.5,0.1-0.7,0.3c-1.8,1.9-4,3.4-6.5,4.4c-0.6,0.2-1,0.9-0.8,1.5c0.1,0.3,0.3,0.5,0.5,0.7l6.5,3.9l0,0l0.2,0.1
			c0.4,0.3,1.1,0.2,1.4-0.2c0,0,0,0,0,0c0.1-0.1,0.2-0.3,0.3-0.5c0.1-1,0.3-2,0.4-3C20.8,7.2,32.4,6.8,44,6.8
			c12.7,0,25.4,0.3,38.1,0.5c-0.1,0.2-0.1,0.4,0,0.6c0.6,0.8,1.4,1.6,2.2,2.3c0.7,0.8,1.6,1.4,2.5,1.8c0.4,0.1,0.9-0.2,1-0.6
			c0-0.2,0-0.4-0.1-0.6c-0.7-0.8-1.5-1.4-2.4-2c-0.5-0.4-1-1-1.6-1.5l3.2,0c0.4-0.1,0.6-0.5,0.5-0.9C87.4,6.3,87.2,6.1,87,6
			l-2.6-0.1c0.4-0.3,0.7-0.6,1.1-0.9C86.4,4.3,87.6,3.7,88.1,2.7z"/>
	</g>
</g>
</svg>
